<svg width="702" height="679" viewBox="0 0 702 679" fill="none" xmlns="http://www.w3.org/2000/svg">
<circle cx="362.5" cy="339.5" r="334" fill="#167D7F" stroke="black" stroke-width="11"/>
<path d="M59.5 547.5L51 546.5H49.5C48.1667 547.167 45.1667 547.167 40.5 546.5C35.5 545.833 32.1667 545.333 30.5 545L27.5 544H27C26.3333 544 25.6667 543.833 25 543.5C24.3333 543.5 23.6667 543.333 23 543C20.6667 542.333 18.5 541.5 16.5 540.5C14.5 539.5 12.6667 538.5 11 537.5L5.99999 534.5C5.66666 533.167 4.66666 531.333 2.99999 529C0.999991 527 0.166658 525.333 0.499997 524L2.49999 523L2.99999 525C3.99999 526.333 4.99999 527.667 5.99999 529C6.66665 530.667 7.66666 532 8.99999 533C12 535.333 15.8333 536.5 20.5 536.5C25.1667 536.5 29.6667 536.667 34 537C36.6667 537.667 39 538 41 538L49 536.5L50 537C51 536.333 52.8333 536 55.5 536C58.1667 536.333 59.6667 536.167 60 535.5C60.6667 536.167 61 536.5 61 536.5C64.6667 535.167 68.6667 534.167 73 533.5C77.3333 532.833 81.5 532 85.5 531C87.5 530.667 89.5 530 91.5 529C93.5 528.333 95.6667 528 98 528C100.667 526.333 104.167 525.167 108.5 524.5C112.5 524.167 116 523.333 119 522C130.667 517.333 141.5 513.5 151.5 510.5C161.5 507.833 172.167 503.5 183.5 497.5C185.833 496.5 189.5 494.333 194.5 491C199.5 487.667 204.333 484.167 209 480.5C214 477.167 217.667 475 220 474C227.667 468.667 233.5 464.833 237.5 462.5C241.5 460.167 245 458 248 456C251 454 255 451.167 260 447.5C265 443.5 272.333 437.333 282 429L337.5 381C342.833 376.333 346.833 372.333 349.5 369C352.5 365.667 355.333 362.5 358 359.5C360.667 356.167 364.333 352.5 369 348.5H368C367.667 348.5 367.5 348.333 367.5 348C367.5 347.667 367.333 347.5 367 347.5C366.667 347.5 365.833 348.167 364.5 349.5C363.167 350.833 362.167 351.5 361.5 351.5C361.167 351.5 359.5 351.5 356.5 351.5C353.833 351.167 352.333 351.167 352 351.5L348.5 350C348.5 346.667 349 343.333 350 340L358.5 326C359.167 326.333 359.5 326.667 359.5 327C359.5 327.333 359.667 327.5 360 327.5C360.667 327.5 362.333 327.333 365 327C368 326.333 371 325.833 374 325.5C377 325.167 378.667 325 379 325C379.667 325 381.333 325.167 384 325.5C386.667 325.5 388.5 325.5 389.5 325.5H390C392.333 323.833 394.5 322.333 396.5 321C398.5 319.667 400.667 318.333 403 317C404 316.333 405 315.333 406 314C407.333 312.667 408.167 311.833 408.5 311.5C411.833 308.5 414 306 415 304C416 301.667 418.167 298.833 421.5 295.5C428.167 289.833 433.5 284.333 437.5 279C441.833 273.333 447.5 267.833 454.5 262.5C455.833 261.5 458.667 258.833 463 254.5C467.333 250.167 471.667 245.833 476 241.5C480.333 237.167 482.833 235 483.5 235C484.167 234 486.833 231.167 491.5 226.5C496.5 221.5 502 216.167 508 210.5C514.333 204.5 519.833 199.167 524.5 194.5C529.5 189.5 532.5 186.5 533.5 185.5C536.5 181.833 539.333 178.333 542 175C545 171.667 548 168.167 551 164.5L565.5 147.5H518.5C511.167 147.5 503.833 147.5 496.5 147.5C489.167 147.5 482.667 147.667 477 148C474.333 150 469.5 151.5 462.5 152.5C455.5 153.167 448.833 154 442.5 155C436.5 155.667 432.833 156.833 431.5 158.5C412.167 161.833 392.5 168.333 372.5 178C352.5 187.667 333.333 199.5 315 213.5C296.667 227.5 280.167 242.833 265.5 259.5C251.167 276.167 239.667 293.333 231 311C222.667 328.333 218.5 345.167 218.5 361.5C218.5 364.167 218.167 364.333 217.5 362C216.833 359.333 216 355.833 215 351.5C214.333 346.833 213.5 342.5 212.5 338.5C211.5 334.5 210.667 332.5 210 332.5L204 329C202.667 327.667 202 325.833 202 323.5C202 321.167 202.5 318.667 203.5 316C204.5 313.333 205.5 310.833 206.5 308.5C212.167 296.167 220 283.833 230 271.5C240.333 258.833 251.667 246.833 264 235.5C276.667 223.833 289 213.667 301 205C306.667 201.333 312.333 198 318 195C323.667 192 329.167 188.833 334.5 185.5C335.167 185.167 337.333 184.167 341 182.5C344.667 180.5 348.167 178.667 351.5 177C355.167 175 357.167 173.833 357.5 173.5C360.833 172.5 365.5 170.833 371.5 168.5C377.5 165.833 384 163.167 391 160.5C398.333 157.833 405 155.5 411 153.5C417 151.5 421.667 150.5 425 150.5H425.5C427.833 148.5 433.333 146.5 442 144.5C451 142.5 460.833 140.667 471.5 139C482.5 137.333 492.5 136.167 501.5 135.5C510.833 134.5 516.833 134.167 519.5 134.5L520 134C521.333 133.333 523.167 133 525.5 133C528.167 133 530 133.167 531 133.5C532.667 133.167 534 133 535 133C536 132.667 537.167 132.5 538.5 132.5C540.167 132.5 541.667 132.667 543 133C544.667 133 546.167 133.167 547.5 133.5C548.167 133.167 549.167 133 550.5 133C552.5 133 554.333 133.333 556 134C558 134.333 559.667 134.667 561 135C562.667 134 564 133.5 565 133.5C566.667 133.5 568.833 134.167 571.5 135.5C572.167 134.833 573.333 134.5 575 134.5H578C579.667 132.833 581.167 131.5 582.5 130.5C584.167 129.5 585.667 128.833 587 128.5C592.667 126.833 597 126 600 126C606 126 608 128.833 606 134.5C610.667 134.5 615.333 134.667 620 135C624.667 135 626.833 135.333 626.5 136C626.5 136 628.333 136.5 632 137.5C636 138.167 638 140.333 638 144C638 145.667 637.167 147.667 635.5 150C634.167 152.333 631.667 155.167 628 158.5C626.667 159.5 625.167 160 623.5 160C621.5 160 619.5 159.5 617.5 158.5C616.167 159.833 614.833 161.333 613.5 163C612.5 164.333 611.167 165.167 609.5 165.5C609.167 166.167 607.833 167.833 605.5 170.5C603.5 172.833 602.167 174.167 601.5 174.5C601.167 175.833 599.333 178.333 596 182C593 185.333 590.833 187.833 589.5 189.5C586.167 193.5 581.667 199 576 206C570.667 212.667 566.5 218.333 563.5 223C562.833 224 562.167 225.167 561.5 226.5C560.833 227.833 560.167 229 559.5 230C558.833 230.667 557.5 233 555.5 237C553.5 240.667 551.333 244.833 549 249.5C546.667 254.167 544.5 258.5 542.5 262.5C540.5 266.167 539.333 268.333 539 269C536 274.333 532.5 282 528.5 292C524.833 301.667 521 312.5 517 324.5H525C527.333 324.5 529.667 324.667 532 325C534.667 325 536.833 325.167 538.5 325.5C538.833 325.5 539 325.667 539 326C539.333 326.333 539.667 326.5 540 326.5C541.667 326.5 543.5 327.333 545.5 329C547.5 330.667 547.667 331.5 546 331.5C545.667 331.5 545.5 331.333 545.5 331C545.5 330.667 545.167 330.5 544.5 330.5C543.833 330.5 542.667 330.833 541 331.5C539.333 331.833 537.667 332 536 332L535 333.5C534.667 333.5 534.5 333.333 534.5 333C534.5 332.333 534.167 332 533.5 332C533.167 332 532 332.167 530 332.5C528.333 332.833 526.667 333.167 525 333.5L523.5 336C522.167 336 520.333 336 518 336C516 335.667 514.5 335.5 513.5 335.5C507.833 353.167 502.667 371.5 498 390.5C493.667 409.5 491.167 426.167 490.5 440.5V446.5C490.5 452.5 491 456.333 492 458C493.333 460 495.167 461 497.5 461C505.167 461 511.5 458.667 516.5 454C521.833 449.667 527.667 444 534 437C535.667 435.333 537.5 433.667 539.5 432C541.5 430 543.167 427.833 544.5 425.5C546.5 424.167 548.167 422.5 549.5 420.5C553.167 417.5 557.167 413.167 561.5 407.5C566.167 401.833 569.5 397.833 571.5 395.5C572.167 394.833 574 392.667 577 389C580 385.333 581.833 383.333 582.5 383C583.833 381.667 585.5 379.667 587.5 377C589.5 374.333 591.5 372 593.5 370C595.167 368.333 597 367.5 599 367.5C601 367.167 600.833 368.333 598.5 371C595.167 375 590.833 380.333 585.5 387C580.5 393.333 575.667 399.5 571 405.5C566.667 411.5 563.5 415.667 561.5 418C561.167 418 559.833 419.667 557.5 423C555.167 426 552.833 429.167 550.5 432.5C548.167 435.833 546.667 438.167 546 439.5C544.667 441.833 541.333 445.667 536 451C530.667 456.333 525.333 461.333 520 466C514.667 471 511 473.667 509 474H507C504.333 474 502 473 500 471C498 469.333 496.5 468.5 495.5 468.5C494.833 465.833 493.333 463.833 491 462.5C488.667 461.5 486.667 460.333 485 459C484.333 458.333 483.5 457.5 482.5 456.5C481.833 455.5 481.167 454.5 480.5 453.5C478.833 451.5 477.167 450.333 475.5 450C474.167 450 473 449.833 472 449.5C471 448.833 470.167 447 469.5 444C468.5 438.667 467.167 434 465.5 430C463.833 426 463.333 421 464 415C464.333 413.667 464.667 411.667 465 409C465.667 406.333 466 404.5 466 403.5H466.5C466.5 405.833 466.167 408 465.5 410C465.167 412 465.167 414.333 465.5 417H466L465.5 416.5C466.167 415.167 467.167 412 468.5 407C469.833 402 470.5 398.833 470.5 397.5C470.167 397.5 470 397.333 470 397L469.5 397.5C469.5 399.167 469.333 400.333 469 401C468.333 399.667 468 398.667 468 398C467.667 395.667 468.333 391.667 470 386C471.667 380 472.333 376 472 374L471.5 370.5C472.833 368.5 474 365.5 475 361.5C476.333 357.167 477.333 353.833 478 351.5C479 347.833 480 345.333 481 344C482.333 342.667 482.667 340.5 482 337.5C478.333 337.5 474.667 337.667 471 338C467.667 338 465.167 338 463.5 338H463C462.667 338 462.333 337.833 462 337.5C461.667 337.167 461.167 337 460.5 337L460 337.5C459.667 337.5 459 337.833 458 338.5C457 338.833 456.167 339 455.5 339H403.5C401.167 341.333 399.167 343.667 397.5 346C395.833 348 393.667 350 391 352L379 362C376 364.333 373 366.833 370 369.5C367.333 372.167 364.5 374.833 361.5 377.5L354.5 383L346.5 390.5L341 394L325 409C323.333 410.667 321.5 412.333 319.5 414C317.5 415.333 315.667 416.833 314 418.5C311.667 420.5 307.5 423.833 301.5 428.5C295.833 433.167 290.333 437.333 285 441C277.667 446.333 270.5 451.667 263.5 457C256.833 462.667 250.5 467.333 244.5 471C236.167 476.333 230 480.167 226 482.5C222.333 484.833 219.667 486.333 218 487C216.333 487.667 214.833 488.167 213.5 488.5C212.5 489.167 210.667 490.167 208 491.5C205.333 493.167 200.833 496 194.5 500C188.5 503.667 182.333 507.167 176 510.5C169.667 513.833 163.333 517 157 520C155.667 520.667 153.333 521.833 150 523.5C146.667 525.167 144.333 526 143 526L133.5 530.5C132.167 530.833 130.833 531.167 129.5 531.5C127.833 531.833 126.167 532.333 124.5 533C122.167 533.667 120 534.333 118 535C115.667 535.667 113.333 536.333 111 537C109 537.333 107.167 537.833 105.5 538.5C103.5 539.5 101.5 539.833 99.5 539.5C98.5 540.167 95.8333 541 91.5 542C87.1667 543 84.1667 543.5 82.5 543.5L66.5 547C65.1667 547.333 64 547.333 63 547C61.6667 547 60.5 547.167 59.5 547.5ZM423.5 325H469.5L470 324.5C470.333 323.833 472 323.5 475 323.5C476.667 323.5 478.333 323.5 480 323.5C482 323.5 483.833 323.667 485.5 324C489.833 310.667 494.5 298.167 499.5 286.5C500.167 284.833 500.833 283.5 501.5 282.5C502.167 281.167 502.833 279.833 503.5 278.5C505.167 274.833 506.5 271.333 507.5 268C508.833 264.333 510.167 260.833 511.5 257.5C514.5 251.167 517.667 244.667 521 238C524.333 231 527.667 224.833 531 219.5L534.5 212.5L536.5 210C535.5 211 534.333 212 533 213C532 214 531 215.167 530 216.5L450.5 298C449.167 299 447.5 300 445.5 301C443.833 301.667 442.5 302.833 441.5 304.5L439 308L424.5 324L423.5 325Z" fill="black"/>
</svg>
